<svg width="110" height="19" viewBox="0 0 110 19" fill="none" xmlns="http://www.w3.org/2000/svg">
<path d="M4.05078 15.3984V15.3633L12.5703 3.1875V0.949219H0.746094V3.55078H8.76172V3.59766L0.371094 15.7266V18H12.6055V15.3984H4.05078ZM23.2109 6.29297V11.8945C23.2109 12.5039 23.1289 13.0664 22.9648 13.5586C22.8008 14.0508 22.5781 14.4609 22.2969 14.7656C22.0156 15.082 21.6875 15.3281 21.3359 15.4922C20.9727 15.6562 20.5977 15.7383 20.1992 15.7383C19.7773 15.7383 19.4375 15.6914 19.1562 15.5977C18.875 15.5039 18.6289 15.3281 18.4414 15.0938C18.2422 14.8594 18.1016 14.5547 18.0078 14.1562C17.9141 13.7695 17.8789 13.2773 17.8789 12.6914V6.29297H15.1953V13.418C15.1953 14.2734 15.3008 15.0117 15.5117 15.6328C15.7227 16.2539 16.0156 16.7461 16.4141 17.1094C16.8125 17.4844 17.2695 17.7539 17.7852 17.9297C18.3008 18.1055 18.8984 18.1875 19.5664 18.1875C20.2578 18.1875 20.9141 18.0469 21.5469 17.7539C22.168 17.4609 22.707 17.0391 23.1758 16.4766H23.2109V18H25.8945V6.29297H23.2109ZM35.6562 6.11719C34.9414 6.11719 34.2734 6.29297 33.6406 6.62109C33.0078 6.94922 32.4688 7.42969 32.0117 8.05078H31.9766V6.29297H29.293V18H31.9766V12.4453C31.9766 11.8125 32.0938 11.2383 32.3398 10.7344C32.5859 10.2305 32.9492 9.83203 33.4414 9.52734C33.9336 9.23438 34.5078 9.08203 35.1758 9.08203C35.4102 9.08203 35.6797 9.09375 35.9844 9.11719V6.12891C35.9141 6.12891 35.8086 6.11719 35.6562 6.11719ZM39.7578 4.54688C40.0742 4.54688 40.3672 4.47656 40.6484 4.3125C40.9297 4.14844 41.1523 3.9375 41.3164 3.65625C41.4805 3.38672 41.5625 3.09375 41.5625 2.76562C41.5625 2.28516 41.375 1.86328 41.0234 1.51172C40.6719 1.16016 40.25 0.984375 39.7578 0.984375C39.2422 0.984375 38.8203 1.16016 38.4688 1.51172C38.1172 1.86328 37.9414 2.27344 37.9414 2.76562C37.9414 3.25781 38.1172 3.67969 38.4688 4.03125C38.8203 4.38281 39.2422 4.54688 39.7578 4.54688ZM38.3984 18H41.082V6.29297H38.3984V18Z" fill="#514949"/>
<path d="M55.0391 18H57.9336V3.55078H62.8203V0.949219H50.1992V3.55078H55.0391V18ZM73.8594 12.0117C73.8594 10.8867 73.625 9.86719 73.168 8.97656C72.6992 8.08594 72.043 7.39453 71.1758 6.87891C70.3086 6.375 69.3008 6.11719 68.1758 6.11719C67.3672 6.11719 66.6172 6.26953 65.9141 6.5625C65.2109 6.85547 64.6016 7.26562 64.0977 7.78125C63.582 8.30859 63.1836 8.94141 62.9023 9.69141C62.6094 10.4414 62.4688 11.2617 62.4688 12.1406C62.4688 13.3359 62.7266 14.4023 63.2539 15.3281C63.7695 16.2539 64.4844 16.957 65.3984 17.4492C66.3008 17.9414 67.3203 18.1875 68.457 18.1875C69.5469 18.1875 70.5078 17.9883 71.3398 17.5898C72.1719 17.1914 72.8516 16.6523 73.3906 15.9727L71.5156 14.3672C70.7773 15.293 69.8047 15.75 68.5977 15.75C67.7305 15.75 67.0039 15.5156 66.4062 15.0352C65.8086 14.5664 65.4219 13.9102 65.2578 13.0781H73.7891C73.8359 12.7969 73.8594 12.4453 73.8594 12.0117ZM68.3164 8.55469C68.8086 8.55469 69.2539 8.66016 69.6523 8.85938C70.0508 9.05859 70.3672 9.32812 70.6133 9.67969C70.8594 10.0312 71.0469 10.4414 71.1641 10.9102H65.3047C65.4922 10.1602 65.8555 9.58594 66.3945 9.17578C66.9336 8.76562 67.5664 8.55469 68.3164 8.55469ZM85.2383 6.29297V7.69922H85.1914C84.3008 6.64453 83.0938 6.11719 81.5703 6.11719C80.7734 6.11719 80.0234 6.26953 79.332 6.57422C78.6289 6.87891 78.0312 7.30078 77.5391 7.82812C77.0352 8.36719 76.6367 9.01172 76.3555 9.76172C76.0625 10.5234 75.9219 11.332 75.9219 12.1992C75.9219 12.9141 76.0039 13.582 76.1914 14.2148C76.3789 14.8477 76.6367 15.3984 76.9766 15.8789C77.3164 16.3594 77.7148 16.7695 78.1836 17.1211C78.6523 17.4727 79.168 17.7422 79.7539 17.918C80.3398 18.1055 80.9492 18.1875 81.5938 18.1875C83.1875 18.1875 84.4297 17.6016 85.3203 16.4297H85.3555V18H87.9219V6.29297H85.2383ZM82.0156 15.75C81.0195 15.75 80.2109 15.4219 79.5898 14.7656C78.957 14.1094 78.6523 13.2539 78.6523 12.2109C78.6523 11.6719 78.7344 11.168 78.9102 10.6992C79.0859 10.2305 79.332 9.84375 79.6367 9.53906C79.9414 9.23438 80.293 8.98828 80.7031 8.8125C81.1133 8.64844 81.5586 8.55469 82.0273 8.55469C82.9766 8.55469 83.7617 8.90625 84.3945 9.60938C85.0273 10.3125 85.3438 11.1797 85.3438 12.2109C85.3438 13.2539 85.0156 14.1094 84.3711 14.7656C83.7266 15.4219 82.9414 15.75 82.0156 15.75ZM105.418 6.11719C104.551 6.11719 103.754 6.29297 103.039 6.62109C102.312 6.94922 101.715 7.42969 101.223 8.0625H101.176C100.473 6.77344 99.3125 6.11719 97.6836 6.11719C96.9922 6.11719 96.3242 6.28125 95.6914 6.58594C95.0586 6.89062 94.4961 7.33594 94.0273 7.91016H93.9922V6.29297H91.3086V18H93.9922V12.1641C93.9922 11.0508 94.25 10.1719 94.7773 9.52734C95.3047 8.88281 95.9844 8.55469 96.8047 8.55469C98.3516 8.55469 99.1367 9.67969 99.1367 11.9062V18.0117H101.82V12.1641C101.82 11.0508 102.078 10.1719 102.594 9.52734C103.109 8.88281 103.766 8.55469 104.551 8.55469C106.074 8.55469 106.848 9.67969 106.848 11.9062V18.0117H109.531V11.2266C109.531 9.51562 109.168 8.23828 108.465 7.39453C107.75 6.55078 106.73 6.11719 105.418 6.11719Z" fill="#F8444F"/>
</svg>
